LOADED 2008 DvDRip XviD

Format : AVI
Format/Info : Audio Video Interleave
File size : 552 MiB
Duration : 1h 35mn
Overall bit rate : 405 Kbps
Writing application
: MEncoder SVN-r29352(20090610-gcc4.3.3)
Writing library : MPlayer

Video
ID : 0
Format : MPEG-4 Visual
Format profile : AdvancedSimple@L5
Format settings, BVOP : Yes
Format settings, QPel : No
Format settings, GMC : No warppoints
Format settings, Matrix : Default (H.263)
Codec ID : XVID
Codec ID/Hint : XviD
Duration : 1h 35mn
Bit rate : 701 Kbps
Width : 640 pixels
Height : 360 pixels
Display aspect ratio : 16:9
Frame rate : 25.000 fps
Resolution : 24 bits
Colorimetry : 4:2:0
Scan type : Progressive
Bits/(Pixel*Frame) : 0.122
Stream size : 478 MiB (87%)
Writing library : XviD 1.2.1 (UTC 2008-12-04)

Audio
ID : 1
Format : MPEG Audio
Format version : Version 2
Format profile : Layer 3
Codec ID : 55
Codec ID/Hint : MP3
Duration : 1h 35mn
Bit rate mode : Constant
Bit rate : 96.0 Kbps
Channel(s) : 2 channels
Sampling rate : 22.05 KHz
Resolution : 16 bits
Video delay : 80ms
Stream size : 65.5 MiB (12%)
Alignment : Aligned on interleaves
Interleave, duration : 26 ms (0.65 video frame)
Interleave, preload duration : 522 ms
Writing library : LAME3.98

A privileged man with a profitable job, a beautiful girlfriend, and a loving family becomes hopelessly entangled with a vengeful drug dealer who assumes the role of his best friend before revealing his diabolical true colors. Tristan Price (Jesse Metcalfe) has a bright future, but when the shade begins to eclipse the sun, things turn bad more quickly than he could have ever anticipated. It seems that sometimes the most stable of folks are also the ones who crave adventure most, and Tristan is a prime example of that penchant. When Tristan meets up with charismatic cocaine dealer Sebastian Cole (Corey Large), the allure of fast cars, fast women, and automatic weapons find the thrill-seeking everyman suddenly drawn into a dangerous world of sex, drugs, and violence. But Tristan's new best friend is also his new worst enemy, and if he has any hope of pulling out of his current tailspin and salvaging relationship with his faithful girlfriend (Monica Keena) he will have to confront the man that could take it all away with the lightning flash of a finger on the trigger.
 
http://www.imdb.com/title/tt0893406/

PLEASE SEED AND ENJOY THANKS

screen shots

 
http://img249.imageshack.us/img249/4907/vlcsnap00001h.png
 
http://img638.imageshack.us/img638/5243/vlcsnap00002wc.png
 
http://img689.imageshack.us/img689/6974/vlcsnap00006eh.png
 
http://img130.imageshack.us/img130/1359/vlcsnap00007k.png

My Other Torrents
 
http://thepiratebay.org/user/vicerock/